<svg width="705.16296" height="682.5843800000001" xmlns="http://www.w3.org/2000/svg" data-name="Layer 1">
 <g>
  <title>background</title>
  <rect x="-1" y="-1" width="707.16296" height="684.58438" id="canvas_background" fill="none"/>
 </g>

 <g>
  <title>Layer 1</title>
  <path d="m505.11782,631.57604c12.1195,8.122 25.928,49.18 25.928,49.18s-43.22554,2.81814 -55.34146,-5.29978a26.41318,26.41318 0 1 1 29.41342,-43.88023l0.00004,0.00001z" fill="#f1f1f1" id="svg_1"/>
  <path d="m531.53791,680.44698l-0.67712,0.53994c-24.70111,-30.98773 -61.97568,-41.69086 -62.34931,-41.79537l0.23314,-0.83406c0.37621,0.10507 37.91278,10.87681 62.79329,42.08949z" fill="#fff" id="svg_2"/>
  <path d="m569.93381,615.19604c-0.77266,20.17711 -39.12933,66.25383 -39.12933,66.25383s-34.69967,-48.88913 -33.92928,-69.059a36.55622,36.55622 0 1 1 73.05861,2.80521l0,-0.00004z" fill="#f1f1f1" id="svg_3"/>
  <path d="m531.52587,681.80532l-1.12779,-0.40593c18.583,-51.60164 4.13625,-103.294 3.98818,-103.81014l1.15206,-0.33076c0.14928,0.51956 14.70547,52.57045 -4.01245,104.54683z" fill="#fff" id="svg_4"/>
  <path d="m432.2064,500.38965l-328.73706,0a22.11531,22.11531 0 0 1 -22.09021,-22.09034l0,-375.68112a22.11531,22.11531 0 0 1 22.09021,-22.09033l328.73706,0a22.11533,22.11533 0 0 1 22.09033,22.09033l0,375.68112a22.11533,22.11533 0 0 1 -22.09033,22.09034z" fill="#e6e6e6" id="svg_5"/>
  <path d="m416.84532,481.97851l-298.0149,0a19.63606,19.63606 0 0 1 -19.61376,-19.61377l0,-343.812a19.63606,19.63606 0 0 1 19.61376,-19.61377l298.0149,0a19.636,19.636 0 0 1 19.61377,19.61377l0,343.812a19.636,19.636 0 0 1 -19.61377,19.61377z" fill="#fff" id="svg_6"/>
  <path d="m386.86037,264.87296l-237.33984,0a4.90308,4.90308 0 1 1 0,-9.80615l237.33984,0a4.90308,4.90308 0 1 1 0,9.80615z" fill="#e4e4e4" id="svg_10"/>
  <path d="m386.86037,284.24748l-237.33984,0a4.90332,4.90332 0 1 1 0,-9.80664l237.33984,0a4.90332,4.90332 0 0 1 0,9.80664z" fill="#e4e4e4" id="svg_11"/>
  <path d="m386.86037,328.22681l-237.33984,0a4.90308,4.90308 0 1 1 0,-9.80616l237.33984,0a4.90308,4.90308 0 1 1 0,9.80616z" fill="#e4e4e4" id="svg_12"/>
  <path d="m386.86037,347.60132l-237.33984,0a4.90332,4.90332 0 1 1 0,-9.80664l237.33984,0a4.90332,4.90332 0 1 1 0,9.80664z" fill="#e4e4e4" id="svg_13"/>
  <path d="m386.86037,391.58065l-237.33984,0a4.90308,4.90308 0 1 1 0,-9.80616l237.33984,0a4.90308,4.90308 0 1 1 0,9.80616z" fill="#e4e4e4" id="svg_14"/>
  <path d="m386.86037,410.95519l-237.33984,0a4.90332,4.90332 0 0 1 0,-9.80664l237.33984,0a4.90332,4.90332 0 1 1 0,9.80664z" fill="#e4e4e4" id="svg_15"/>
  <path d="m395.53319,162.91838a46.44905,46.44905 0 0 1 -10.10986,28.99a45.77,45.77 0 0 1 -7.2002,7.26a46.4361,46.4361 0 0 1 -25.48,10.22c-1.27,0.11 -2.55029,0.16 -3.84033,0.16a46.39674,46.39674 0 0 1 -7.62988,-0.62994c-0.88965,-0.14 -1.75977,-0.31006 -2.62989,-0.51a43.81,43.81 0 0 1 -4.48,-1.25a46.40822,46.40822 0 0 1 -13.26025,-6.96c-1.06983,-0.8 -2.09961,-1.65 -3.09961,-2.55a42.02129,42.02129 0 0 1 -3.47022,-3.46c-0.29,-0.32 -0.58007,-0.65 -0.85986,-0.98a46.61748,46.61748 0 1 1 82.06006,-30.29l0.00004,-0.00006z" fill="#e4e4e4" id="svg_17"/>
  <circle cx="347.279872" cy="159.72326" r="19.10891" fill="#9e616a" id="svg_18"/>
  <path d="m368.55321,150.40837a7.7307,7.7307 0 0 0 -1.37012,-4.8l-0.68994,-0.98c-2.49023,-4.8 -6.6001,-9.12 -9.60986,-12.28c-2.26026,-2.37 -4.52,-3.51 -6.69043,-3.4a5.99035,5.99035 0 0 0 -4.08985,2.04a14.71588,14.71588 0 0 0 -14,7.99c-9.1499,4.82995 -6.41992,19.09 -6.39013,19.24l2.21045,3.71l0.25,-0.47c0,-0.01 0.02978,-0.05 0.06982,-0.13c0.43018,-0.77 2.77,-5.05 4.3501,-7.76a7.67049,7.67049 0 0 1 2.25,-2.32a11.20166,11.20166 0 0 1 4.96,-1.87l4.85986,-0.63l-1.83984,2.76l13.2397,0l5.08985,-0.6c0.51025,2.09 4.55029,10.2 5.04,11.18l0.04,0.08l0.27,0.55l1.51025,-4.15a16.0467,16.0467 0 0 0 0.54014,-8.16z" fill="#2f2e41" id="svg_19"/>
  <path d="m321.04305,200.29834c0.82,-1.08 5.07,-6.12 14.85,-8.79l5.18,-5.77l20.77,-3.31l10.57,5.84l13.01,3.64a45.75853,45.75853 0 0 1 -7.2,7.26a46.43694,46.43694 0 0 1 -25.48,10.22c-1.27,0.11 -2.55,0.16 -3.84,0.16a46.39209,46.39209 0 0 1 -7.63,-0.63c-0.89,-0.14 -1.76,-0.31 -2.63,-0.51a43.76988,43.76988 0 0 1 -4.48,-1.25a46.17761,46.17761 0 0 1 -13.12,-6.86c-0.05,-0.03 -0.09,-0.07 -0.14,-0.1l0.14,0.1z" fill="#0052cc" id="svg_20"/>
  <path d="m532.70861,23.38865l-529.74136,0a2.97049,2.97049 0 0 1 -2.96725,-2.96725l0,-17.45415a2.97049,2.97049 0 0 1 2.96725,-2.96725l529.74136,0a2.97049,2.97049 0 0 1 2.96725,2.96725l0,17.45415a2.97049,2.97049 0 0 1 -2.96725,2.96725z" fill="#0052cc" id="svg_21"/>
  <circle id="a85e5c17-ea9f-4706-8082-8afb2e9db2dc" data-name="Ellipse 90" cx="17.22021" cy="10.84298" r="4.21275" fill="#fff"/>
  <circle id="b621e56c-df3f-4a6b-a567-05f014ec6f14" data-name="Ellipse 91" cx="33.21043" cy="10.84298" r="4.21275" fill="#fff"/>
  <circle id="f2c0e2e9-064c-4994-bbee-183d3c3fcd77" data-name="Ellipse 92" cx="49.2014" cy="10.84298" r="4.21275" fill="#fff"/>
  <path d="m517.0416,7.9434l-18.41334,0a1.364,1.364 0 0 1 0,-2.7279l18.41334,0a1.364,1.364 0 1 1 0,2.7279z" fill="#fff" id="svg_22"/>
  <path d="m517.0416,13.05819l-18.41334,0a1.36395,1.36395 0 0 1 0,-2.7279l18.41334,0a1.364,1.364 0 1 1 0,2.7279z" fill="#fff" id="svg_23"/>
  <path d="m517.0416,18.17304l-18.41334,0a1.364,1.364 0 0 1 0,-2.72791l18.41334,0a1.364,1.364 0 0 1 0,2.72791z" fill="#fff" id="svg_24"/>
  <path d="m662.47675,469.37195a8.56621,8.56621 0 0 1 1.70826,-13.02376l-7.02037,-29.621l14.85847,5.42843l4.3887,27.29637a8.61268,8.61268 0 0 1 -13.93506,9.92l0,-0.00004z" fill="#9e616a" id="svg_25"/>
  <path d="m626.74558,345.24453l5.96312,15.33372s-2.55562,15.33373 1.70375,18.74122s2.55562,3.4075 2.55562,5.96312a13.10381,13.10381 0 0 0 5.11124,9.37061c3.40749,2.55562 18.74122,54.51991 18.74122,54.51991l15.33372,0a48.04248,48.04248 0 0 1 0,-11.92623c0.85188,-5.96312 -2.55562,-21.29684 -4.25937,-23.85246s0,-5.96312 0,-11.07436s-3.40749,-7.66686 -3.40749,-16.1856s-10.22248,-74.96487 -9.37061,-82.63174s-8.51874,-14.48185 -8.51874,-14.48185l-8.51873,0l-15.33373,56.22366z" fill="#e4e4e4" id="svg_26"/>
  <polygon points="665.96 669.223 654.628 669.223 649.237 625.511 665.962 625.512 665.96 669.223" fill="#9e616a" id="svg_27"/>
  <path d="m668.8506,680.2083l-36.54109,-0.00135l0,-0.46219a14.22356,14.22356 0 0 1 14.22281,-14.22257l0.00091,0l6.67471,-5.06379l12.45354,5.06455l3.18981,0.00013l-0.00069,14.68522z" fill="#2f2e41" id="svg_28"/>
  <polygon points="562.289 668.899 551.647 665.005 561.6 622.102 577.308 627.849 562.289 668.899" fill="#9e616a" id="svg_29"/>
  <path d="m561.22948,680.2083l-34.3166,-12.55477l0.15879,-0.43406a14.22357,14.22357 0 0 1 18.24325,-8.47077l0.00085,0.00031l8.0081,-2.46252l9.95566,9.03466l2.99562,1.096l-5.04567,13.79115z" fill="#2f2e41" id="svg_30"/>
  <path d="m640.99267,464.82227s-7.66687,37.48244 5.11124,34.07494s7.66686,-35.77869 7.66686,-35.77869l-12.7781,1.70375z" fill="#a0616a" id="svg_31"/>
  <path d="m584.76901,433.72888s-10.22248,13.63 -10.22248,21.29684s-3.4075,75.81675 -3.4075,75.81675s-25.86476,101.48346 -20.75355,106.59472s23.00059,10.22249 25.55621,7.66687s25.01289,-107.44658 25.01289,-107.44658l21.2969,-57.07555l19.59309,81.77986l1.70375,86.89111s21.29684,5.11124 25.55621,1.70375s5.11124,-86.03923 0,-115.00294s0.85187,-95.40984 0.85187,-95.40984l-85.18739,-6.81499z" fill="#2f2e41" id="svg_32"/>
  <circle cx="618.93206" cy="226.29766" r="25.55621" fill="#9e616a" id="svg_33"/>
  <path d="m586.47276,288.91037s7.35831,-10.96385 21.84016,-25.44571c7.66686,-2.55562 20.95087,-1.06611 25.5562,0c21.29684,28.11183 22.63717,26.24377 28.1808,41.95076c1.43753,4.073 2.1563,7.98632 1.5174,11.18084c-2.55562,12.77811 5.53718,116.28075 6.389,119.68824s6.815,7.66686 0.85187,7.66686s-96.26171,-3.40749 -94.558,-5.96311s10.22257,-149.07788 10.22257,-149.07788z" fill="#e4e4e4" id="svg_34"/>
  <polygon points="582.572 436.864 608.196 380.486 595.384 440.445 582.572 436.864" opacity="0.1" style="isolation:isolate" id="svg_35"/>
  <path d="m611.20053,249.97374a43.48878,43.48878 0 0 0 6.57469,-6.03411a14.59365,14.59365 0 0 0 3.56154,-8.0453a8.86094,8.86094 0 0 0 -3.37856,-7.85457c-2.43412,-1.7196 -6.14589,-1.61954 -8.16629,0.57133c0.97608,-3.15529 1.86756,-6.87695 -0.10939,-9.52275c-1.79926,-2.408 -5.15566,-2.81718 -8.05488,-3.61112a23.342,23.342 0 0 1 -13.49393,-10.05242l4.92348,1.01886l-0.54909,-3.50988l4.08006,1.41865l0.03567,-4.8885l4.2109,2.356a26.88448,26.88448 0 0 1 18.93963,-7.05664a20.94173,20.94173 0 0 1 10.0423,2.75692a14.70109,14.70109 0 0 1 6.54346,7.95111c2.16731,-2.24978 6.03162,-2.07581 8.61372,-0.31754s4.09867,4.6997 5.14023,7.64485a32.99606,32.99606 0 0 1 1.388,17.65322a26.27915,26.27915 0 0 1 -9.02589,15.08357a29.30482,29.30482 0 0 1 -14.70023,5.84754a54.85691,54.85691 0 0 1 -15.9502,-0.682" fill="#2f2e41" id="svg_36"/>
  <path d="m574.59405,469.26145a8.56625,8.56625 0 0 0 -1.70826,-13.02377l7.02037,-29.621l-14.85847,5.42844l-4.3887,27.29636a8.61268,8.61268 0 0 0 13.93506,9.92l0,-0.00003z" fill="#9e616a" id="svg_37"/>
  <path d="m594.99148,288.91037l-8.51873,0s-9.37061,6.815 -8.51874,14.48185s-9.37061,74.113 -9.37061,82.63174s-3.40749,11.07436 -3.40749,16.1856s1.70374,8.51873 0,11.07436s-5.11125,17.88934 -4.25937,23.85246a48.04248,48.04248 0 0 1 0,11.92623l15.33372,0s15.33373,-51.96429 18.74122,-54.51991a13.10381,13.10381 0 0 0 5.11124,-9.37061c0,-2.55562 -1.70374,-2.55562 2.55562,-5.96312s1.70375,-18.74122 1.70375,-18.74122l5.96312,-15.33372l-15.33373,-56.22366z" fill="#e4e4e4" id="svg_38"/>
  <path d="m835.97227,682.58438l-467.294,0a1.19069,1.19069 0 1 1 0,-2.38137l467.294,0a1.19069,1.19069 0 1 1 0,2.38137z" fill="#cacaca" id="svg_39"/>
  <path d="m277.81739,192.37293l-130.50393,0a2.69601,4.90308 0 1 1 0,-9.80615l130.50393,0a2.69601,4.90308 0 1 1 0,9.80615z" fill="#e4e4e4" id="svg_40" stroke="null"/>
  <path d="m277.81739,166.12291l-130.50393,0a2.69601,4.90308 0 1 1 0,-9.80615l130.50393,0a2.69601,4.90308 0 1 1 0,9.80615z" fill="#e4e4e4" id="svg_41" stroke="null"/>
  <path d="m277.81739,142.3729l-130.50393,0a2.69601,4.90308 0 1 1 0,-9.80615l130.50393,0a2.69601,4.90308 0 1 1 0,9.80615z" fill="#e4e4e4" id="svg_42" stroke="null"/>
  <text xml:space="preserve" text-anchor="start" font-family="Helvetica, Arial, sans-serif" font-size="10" id="svg_8" y="453.134307" x="227.055135" fill-opacity="null" stroke-opacity="null" stroke-width="0" stroke="null" fill="#000000">The best online resume builder - polebrief</text>
 </g>
</svg>